<svg width="94" height="94" viewBox="0 0 94 94" fill="none" xmlns="http://www.w3.org/2000/svg">
<circle cx="3" cy="3" r="3" fill="#FF6525" fill-opacity="0.5"/>
<circle cx="14" cy="3" r="3" fill="#FF6525" fill-opacity="0.5"/>
<circle cx="25" cy="3" r="3" fill="#FF6525" fill-opacity="0.5"/>
<circle cx="36" cy="3" r="3" fill="#FF6525" fill-opacity="0.5"/>
<circle cx="47" cy="3" r="3" fill="#FF6525" fill-opacity="0.5"/>
<circle cx="58" cy="3" r="3" fill="#FF6525" fill-opacity="0.5"/>
<circle cx="69" cy="3" r="3" fill="#FF6525" fill-opacity="0.5"/>
<circle cx="80" cy="3" r="3" fill="#FF6525" fill-opacity="0.5"/>
<circle cx="91" cy="3" r="3" fill="#FF6525" fill-opacity="0.5"/>
<circle cx="3" cy="14" r="3" fill="#FF6525" fill-opacity="0.5"/>
<circle cx="14" cy="14" r="3" fill="#FF6525" fill-opacity="0.5"/>
<circle cx="25" cy="14" r="3" fill="#FF6525" fill-opacity="0.5"/>
<circle cx="36" cy="14" r="3" fill="#FF6525" fill-opacity="0.5"/>
<circle cx="47" cy="14" r="3" fill="#FF6525" fill-opacity="0.5"/>
<circle cx="58" cy="14" r="3" fill="#FF6525" fill-opacity="0.5"/>
<circle cx="69" cy="14" r="3" fill="#FF6525" fill-opacity="0.5"/>
<circle cx="80" cy="14" r="3" fill="#FF6525" fill-opacity="0.5"/>
<circle cx="91" cy="14" r="3" fill="#FF6525" fill-opacity="0.5"/>
<circle cx="3" cy="25" r="3" fill="#FF6525" fill-opacity="0.5"/>
<circle cx="14" cy="25" r="3" fill="#FF6525" fill-opacity="0.5"/>
<circle cx="25" cy="25" r="3" fill="#FF6525" fill-opacity="0.5"/>
<circle cx="36" cy="25" r="3" fill="#FF6525" fill-opacity="0.5"/>
<circle cx="47" cy="25" r="3" fill="#FF6525" fill-opacity="0.5"/>
<circle cx="58" cy="25" r="3" fill="#FF6525" fill-opacity="0.5"/>
<circle cx="69" cy="25" r="3" fill="#FF6525" fill-opacity="0.5"/>
<circle cx="80" cy="25" r="3" fill="#FF6525" fill-opacity="0.5"/>
<circle cx="91" cy="25" r="3" fill="#FF6525" fill-opacity="0.5"/>
<circle cx="3" cy="36" r="3" fill="#FF6525" fill-opacity="0.5"/>
<circle cx="14" cy="36" r="3" fill="#FF6525" fill-opacity="0.5"/>
<circle cx="25" cy="36" r="3" fill="#FF6525" fill-opacity="0.5"/>
<circle cx="36" cy="36" r="3" fill="#FF6525" fill-opacity="0.5"/>
<circle cx="47" cy="36" r="3" fill="#FF6525" fill-opacity="0.5"/>
<circle cx="58" cy="36" r="3" fill="#FF6525" fill-opacity="0.5"/>
<circle cx="69" cy="36" r="3" fill="#FF6525" fill-opacity="0.5"/>
<circle cx="80" cy="36" r="3" fill="#FF6525" fill-opacity="0.5"/>
<circle cx="91" cy="36" r="3" fill="#FF6525" fill-opacity="0.5"/>
<circle cx="3" cy="47" r="3" fill="#FF6525" fill-opacity="0.5"/>
<circle cx="14" cy="47" r="3" fill="#FF6525" fill-opacity="0.5"/>
<circle cx="25" cy="47" r="3" fill="#FF6525" fill-opacity="0.5"/>
<circle cx="36" cy="47" r="3" fill="#FF6525" fill-opacity="0.5"/>
<circle cx="47" cy="47" r="3" fill="#FF6525" fill-opacity="0.5"/>
<circle cx="58" cy="47" r="3" fill="#FF6525" fill-opacity="0.5"/>
<circle cx="69" cy="47" r="3" fill="#FF6525" fill-opacity="0.5"/>
<circle cx="80" cy="47" r="3" fill="#FF6525" fill-opacity="0.5"/>
<circle cx="91" cy="47" r="3" fill="#FF6525" fill-opacity="0.5"/>
<circle cx="3" cy="58" r="3" fill="#FF6525" fill-opacity="0.5"/>
<circle cx="14" cy="58" r="3" fill="#FF6525" fill-opacity="0.5"/>
<circle cx="25" cy="58" r="3" fill="#FF6525" fill-opacity="0.5"/>
<circle cx="36" cy="58" r="3" fill="#FF6525" fill-opacity="0.5"/>
<circle cx="47" cy="58" r="3" fill="#FF6525" fill-opacity="0.5"/>
<circle cx="58" cy="58" r="3" fill="#FF6525" fill-opacity="0.5"/>
<circle cx="69" cy="58" r="3" fill="#FF6525" fill-opacity="0.5"/>
<circle cx="80" cy="58" r="3" fill="#FF6525" fill-opacity="0.5"/>
<circle cx="91" cy="58" r="3" fill="#FF6525" fill-opacity="0.5"/>
<circle cx="3" cy="69" r="3" fill="#FF6525" fill-opacity="0.5"/>
<circle cx="14" cy="69" r="3" fill="#FF6525" fill-opacity="0.5"/>
<circle cx="25" cy="69" r="3" fill="#FF6525" fill-opacity="0.5"/>
<circle cx="36" cy="69" r="3" fill="#FF6525" fill-opacity="0.5"/>
<circle cx="47" cy="69" r="3" fill="#FF6525" fill-opacity="0.5"/>
<circle cx="58" cy="69" r="3" fill="#FF6525" fill-opacity="0.5"/>
<circle cx="69" cy="69" r="3" fill="#FF6525" fill-opacity="0.5"/>
<circle cx="80" cy="69" r="3" fill="#FF6525" fill-opacity="0.5"/>
<circle cx="91" cy="69" r="3" fill="#FF6525" fill-opacity="0.5"/>
<circle cx="3" cy="69" r="3" fill="#FF6525" fill-opacity="0.5"/>
<circle cx="14" cy="69" r="3" fill="#FF6525" fill-opacity="0.5"/>
<circle cx="25" cy="69" r="3" fill="#FF6525" fill-opacity="0.5"/>
<circle cx="36" cy="69" r="3" fill="#FF6525" fill-opacity="0.5"/>
<circle cx="47" cy="69" r="3" fill="#FF6525" fill-opacity="0.5"/>
<circle cx="58" cy="69" r="3" fill="#FF6525" fill-opacity="0.5"/>
<circle cx="69" cy="69" r="3" fill="#FF6525" fill-opacity="0.5"/>
<circle cx="80" cy="69" r="3" fill="#FF6525" fill-opacity="0.5"/>
<circle cx="91" cy="69" r="3" fill="#FF6525" fill-opacity="0.5"/>
<circle cx="3" cy="80" r="3" fill="#FF6525" fill-opacity="0.5"/>
<circle cx="14" cy="80" r="3" fill="#FF6525" fill-opacity="0.5"/>
<circle cx="25" cy="80" r="3" fill="#FF6525" fill-opacity="0.5"/>
<circle cx="36" cy="80" r="3" fill="#FF6525" fill-opacity="0.5"/>
<circle cx="47" cy="80" r="3" fill="#FF6525" fill-opacity="0.5"/>
<circle cx="58" cy="80" r="3" fill="#FF6525" fill-opacity="0.5"/>
<circle cx="69" cy="80" r="3" fill="#FF6525" fill-opacity="0.5"/>
<circle cx="80" cy="80" r="3" fill="#FF6525" fill-opacity="0.5"/>
<circle cx="91" cy="80" r="3" fill="#FF6525" fill-opacity="0.5"/>
<circle cx="3" cy="91" r="3" fill="#FF6525" fill-opacity="0.5"/>
<circle cx="14" cy="91" r="3" fill="#FF6525" fill-opacity="0.5"/>
<circle cx="25" cy="91" r="3" fill="#FF6525" fill-opacity="0.5"/>
<circle cx="36" cy="91" r="3" fill="#FF6525" fill-opacity="0.5"/>
<circle cx="47" cy="91" r="3" fill="#FF6525" fill-opacity="0.5"/>
<circle cx="58" cy="91" r="3" fill="#FF6525" fill-opacity="0.5"/>
<circle cx="69" cy="91" r="3" fill="#FF6525" fill-opacity="0.5"/>
<circle cx="80" cy="91" r="3" fill="#FF6525" fill-opacity="0.5"/>
<circle cx="91" cy="91" r="3" fill="#FF6525" fill-opacity="0.5"/>
</svg>
