<svg width="108" height="107" viewBox="0 0 108 107" fill="none" xmlns="http://www.w3.org/2000/svg">
<g filter="url(#filter0_d_207_8)">
<rect x="20" y="10" width="68" height="67" rx="16" fill="white"/>
</g>
<path d="M66.2222 32.5C66.6519 32.5 67 32.1084 67 31.625V29.875C67 29.3916 66.6519 29 66.2222 29H39.7778C39.3481 29 39 29.3916 39 29.875V31.625C39 32.1084 39.3481 32.5 39.7778 32.5H40.5546V53.5H39.7778C39.3481 53.5 39 53.8916 39 54.375V56.125C39 56.6084 39.3481 57 39.7778 57H51.4444V52.625C51.4444 52.1437 51.7944 51.75 52.2222 51.75H53.7778C54.2056 51.75 54.5556 52.1437 54.5556 52.625V57H66.2222C66.6519 57 67 56.6084 67 56.125V54.375C67 53.8916 66.6519 53.5 66.2222 53.5H65.4444V32.5H66.2222ZM51.4444 34.95C51.4444 34.6 51.7556 34.25 52.0667 34.25H53.9333C54.2444 34.25 54.5556 34.6 54.5556 34.95V37.05C54.5556 37.4 54.2444 37.75 53.9333 37.75H52.0667C51.7556 37.75 51.4444 37.4 51.4444 37.05V34.95ZM51.4444 40.2C51.4444 39.85 51.7556 39.5 52.0667 39.5H53.9333C54.2444 39.5 54.5556 39.85 54.5556 40.2V42.3C54.5556 42.65 54.2444 43 53.9333 43H52.0667C51.7556 43 51.4444 42.65 51.4444 42.3V40.2ZM45.2222 34.95C45.2222 34.6 45.5333 34.25 45.8444 34.25H47.7111C48.0222 34.25 48.3333 34.6 48.3333 34.95V37.05C48.3333 37.4 48.0222 37.75 47.7111 37.75H45.8444C45.5333 37.75 45.2222 37.4 45.2222 37.05V34.95ZM47.7111 43H45.8444C45.5333 43 45.2222 42.65 45.2222 42.3V40.2C45.2222 39.85 45.5333 39.5 45.8444 39.5H47.7111C48.0222 39.5 48.3333 39.85 48.3333 40.2V42.3C48.3333 42.65 48.0222 43 47.7111 43ZM48.3333 50C48.3333 47.1005 50.4226 44.75 53 44.75C55.5774 44.75 57.6667 47.1005 57.6667 50H48.3333ZM60.7778 42.3C60.7778 42.65 60.4667 43 60.1556 43H58.2889C57.9778 43 57.6667 42.65 57.6667 42.3V40.2C57.6667 39.85 57.9778 39.5 58.2889 39.5H60.1556C60.4667 39.5 60.7778 39.85 60.7778 40.2V42.3ZM60.7778 37.05C60.7778 37.4 60.4667 37.75 60.1556 37.75H58.2889C57.9778 37.75 57.6667 37.4 57.6667 37.05V34.95C57.6667 34.6 57.9778 34.25 58.2889 34.25H60.1556C60.4667 34.25 60.7778 34.6 60.7778 34.95V37.05Z" fill="#FF6525"/>
<defs>
<filter id="filter0_d_207_8" x="0" y="0" width="108" height="107" filterUnits="userSpaceOnUse" color-interpolation-filters="sRGB">
<feFlood flood-opacity="0" result="BackgroundImageFix"/>
<feColorMatrix in="SourceAlpha" type="matrix" values="0 0 0 0 0 0 0 0 0 0 0 0 0 0 0 0 0 0 127 0" result="hardAlpha"/>
<feOffset dy="10"/>
<feGaussianBlur stdDeviation="10"/>
<feComposite in2="hardAlpha" operator="out"/>
<feColorMatrix type="matrix" values="0 0 0 0 0 0 0 0 0 0 0 0 0 0 0 0 0 0 0.25 0"/>
<feBlend mode="normal" in2="BackgroundImageFix" result="effect1_dropShadow_207_8"/>
<feBlend mode="normal" in="SourceGraphic" in2="effect1_dropShadow_207_8" result="shape"/>
</filter>
</defs>
</svg>
