<svg width="108" height="107" viewBox="0 0 108 107" fill="none" xmlns="http://www.w3.org/2000/svg">
<g filter="url(#filter0_d_199_23)">
<rect x="20" y="10" width="68" height="67" rx="16" fill="white"/>
</g>
<path d="M64.4375 39.25H42.5625C41.6996 39.25 41 38.5504 41 37.6875V34.5625C41 33.6996 41.6996 33 42.5625 33H64.4375C65.3004 33 66 33.6996 66 34.5625V37.6875C66 38.5504 65.3004 39.25 64.4375 39.25ZM62.0938 34.9531C61.4465 34.9531 60.9219 35.4778 60.9219 36.125C60.9219 36.7722 61.4465 37.2969 62.0938 37.2969C62.741 37.2969 63.2656 36.7722 63.2656 36.125C63.2656 35.4778 62.741 34.9531 62.0938 34.9531ZM58.9688 34.9531C58.3215 34.9531 57.7969 35.4778 57.7969 36.125C57.7969 36.7722 58.3215 37.2969 58.9688 37.2969C59.616 37.2969 60.1406 36.7722 60.1406 36.125C60.1406 35.4778 59.616 34.9531 58.9688 34.9531ZM64.4375 47.0625H42.5625C41.6996 47.0625 41 46.3629 41 45.5V42.375C41 41.5121 41.6996 40.8125 42.5625 40.8125H64.4375C65.3004 40.8125 66 41.5121 66 42.375V45.5C66 46.3629 65.3004 47.0625 64.4375 47.0625ZM62.0938 42.7656C61.4465 42.7656 60.9219 43.2903 60.9219 43.9375C60.9219 44.5847 61.4465 45.1094 62.0938 45.1094C62.741 45.1094 63.2656 44.5847 63.2656 43.9375C63.2656 43.2903 62.741 42.7656 62.0938 42.7656ZM58.9688 42.7656C58.3215 42.7656 57.7969 43.2903 57.7969 43.9375C57.7969 44.5847 58.3215 45.1094 58.9688 45.1094C59.616 45.1094 60.1406 44.5847 60.1406 43.9375C60.1406 43.2903 59.616 42.7656 58.9688 42.7656ZM64.4375 54.875H42.5625C41.6996 54.875 41 54.1754 41 53.3125V50.1875C41 49.3246 41.6996 48.625 42.5625 48.625H64.4375C65.3004 48.625 66 49.3246 66 50.1875V53.3125C66 54.1754 65.3004 54.875 64.4375 54.875ZM62.0938 50.5781C61.4465 50.5781 60.9219 51.1028 60.9219 51.75C60.9219 52.3972 61.4465 52.9219 62.0938 52.9219C62.741 52.9219 63.2656 52.3972 63.2656 51.75C63.2656 51.1028 62.741 50.5781 62.0938 50.5781ZM58.9688 50.5781C58.3215 50.5781 57.7969 51.1028 57.7969 51.75C57.7969 52.3972 58.3215 52.9219 58.9688 52.9219C59.616 52.9219 60.1406 52.3972 60.1406 51.75C60.1406 51.1028 59.616 50.5781 58.9688 50.5781Z" fill="#FF6525"/>
<defs>
<filter id="filter0_d_199_23" x="0" y="0" width="108" height="107" filterUnits="userSpaceOnUse" color-interpolation-filters="sRGB">
<feFlood flood-opacity="0" result="BackgroundImageFix"/>
<feColorMatrix in="SourceAlpha" type="matrix" values="0 0 0 0 0 0 0 0 0 0 0 0 0 0 0 0 0 0 127 0" result="hardAlpha"/>
<feOffset dy="10"/>
<feGaussianBlur stdDeviation="10"/>
<feComposite in2="hardAlpha" operator="out"/>
<feColorMatrix type="matrix" values="0 0 0 0 0 0 0 0 0 0 0 0 0 0 0 0 0 0 0.25 0"/>
<feBlend mode="normal" in2="BackgroundImageFix" result="effect1_dropShadow_199_23"/>
<feBlend mode="normal" in="SourceGraphic" in2="effect1_dropShadow_199_23" result="shape"/>
</filter>
</defs>
</svg>
